# xmcd
#
# Track frame offsets:
#	150
#	16447
#	35906
#	49679
#	67754
#	86285
#	116726
#	132881
#
# Disc length: 2017 seconds
#
# Revision: 0
# Processed by: cddbd v1.5.2PL0 Copyright (c) Steve Scherf et al.
# Submitted via: audiograbber 1.83.01
#
DISCID=6307df08
DTITLE=diverse - Gospelprogramm2008 neue Stücke
DYEAR=1900
DGENRE=Gospel
TTITLE0=Get Together
TTITLE1=In This House
TTITLE2=On My Mind
TTITLE3=This Train
TTITLE4=Soon And Very Soon
TTITLE5=We Need To Hear From You
TTITLE6=Like A Mighty River
TTITLE7=New Day Dawning
EXTD=
EXTT0=
EXTT1=
EXTT2=
EXTT3=
EXTT4=
EXTT5=
EXTT6=
EXTT7=
PLAYORDER=
